# xmcd
#
# Track frame offsets:
#	150
#	12787
#	29015
#	46535
#	59662
#	75730
#	89075
#	106342
#	124120
#	140710
#	162587
#	179095
#
# Disc length: 2571 seconds
#
# Revision: 1
# Processed by: cddbd v1.5.1PL2 Copyright (c) Steve Scherf et al.
# Submitted via: audiograbber 1.83.01
#
DISCID=aa0a090c
DTITLE=Various Artist - My Kind of Country
DYEAR=2005
DGENRE=Country
TTITLE0=John Brack, Holly and Barry Tashian - I Wish I Could Tell Them
TTITLE1=Dyann and Michael Woody - Teardrops and Diamonds
TTITLE2=Ewing, Johnson - Sliver Of The Moon
TTITLE3=Jeff Turner - He Ho, What Do You Know
TTITLE4=Buddy Hyatt - Teach Me To Forget
TTITLE5=Becky Hobbs - Live Until You Die
TTITLE6=Shawn Camp, Benita Hill, Sandy Mason - Two Pina Coladas
TTITLE7=Tom Douglas - Little Rock
TTITLE8=John Brack, Max Stenz - I Won't Stand Still
TTITLE9=John Brack, Max Stenz - Cause You Still Love Me
TTITLE10=Mike Blakely - Too Much Texas
TTITLE11=Joe Webber, Chuck Leonard, Greg Crowe - Who Said That
EXTD=
EXTT0=
EXTT1=
EXTT2=
EXTT3=
EXTT4=
EXTT5=
EXTT6=
EXTT7=
EXTT8=
EXTT9=
EXTT10=
EXTT11=
PLAYORDER=
